<svg xmlns="http://www.w3.org/2000/svg" xmlns:xlink="http://www.w3.org/1999/xlink" width="2720" zoomAndPan="magnify" viewBox="0 0 2040 435.749989" height="581" preserveAspectRatio="xMidYMid meet" version="1.0"><defs><g/><clipPath id="e7758cdd3b"><path d="M 383 263 L 1858 263 L 1858 435.5 L 383 435.5 Z M 383 263 " clip-rule="nonzero"/></clipPath><linearGradient x1="-8.484469" gradientTransform="matrix(1, 0.000000000469915, -0.000000000469915, 1, 0.00000127006, 0.0000123495)" y1="24.398001" x2="1773.182633" gradientUnits="userSpaceOnUse" y2="24.398001" id="7115d15786"><stop stop-opacity="1" stop-color="rgb(2.349854%, 71.369934%, 83.139038%)" offset="0"/><stop stop-opacity="1" stop-color="rgb(2.496338%, 71.520996%, 83.274841%)" offset="0.03125"/><stop stop-opacity="1" stop-color="rgb(2.815247%, 71.852112%, 83.572388%)" offset="0.0625"/><stop stop-opacity="1" stop-color="rgb(3.161621%, 72.212219%, 83.894348%)" offset="0.09375"/><stop stop-opacity="1" stop-color="rgb(3.507996%, 72.570801%, 84.214783%)" offset="0.125"/><stop stop-opacity="1" stop-color="rgb(3.855896%, 72.930908%, 84.536743%)" offset="0.15625"/><stop stop-opacity="1" stop-color="rgb(4.202271%, 73.28949%, 84.858704%)" offset="0.1875"/><stop stop-opacity="1" stop-color="rgb(4.548645%, 73.648071%, 85.180664%)" offset="0.21875"/><stop stop-opacity="1" stop-color="rgb(4.89502%, 74.008179%, 85.501099%)" offset="0.25"/><stop stop-opacity="1" stop-color="rgb(5.241394%, 74.36676%, 85.823059%)" offset="0.28125"/><stop stop-opacity="1" stop-color="rgb(5.587769%, 74.726868%, 86.14502%)" offset="0.3125"/><stop stop-opacity="1" stop-color="rgb(5.934143%, 75.085449%, 86.46698%)" offset="0.34375"/><stop stop-opacity="1" stop-color="rgb(6.280518%, 75.444031%, 86.78894%)" offset="0.375"/><stop stop-opacity="1" stop-color="rgb(6.626892%, 75.804138%, 87.109375%)" offset="0.40625"/><stop stop-opacity="1" stop-color="rgb(6.974792%, 76.16272%, 87.431335%)" offset="0.4375"/><stop stop-opacity="1" stop-color="rgb(7.321167%, 76.521301%, 87.753296%)" offset="0.46875"/><stop stop-opacity="1" stop-color="rgb(7.667542%, 76.881409%, 88.075256%)" offset="0.5"/><stop stop-opacity="1" stop-color="rgb(8.013916%, 77.23999%, 88.395691%)" offset="0.53125"/><stop stop-opacity="1" stop-color="rgb(8.360291%, 77.600098%, 88.717651%)" offset="0.5625"/><stop stop-opacity="1" stop-color="rgb(8.706665%, 77.958679%, 89.039612%)" offset="0.59375"/><stop stop-opacity="1" stop-color="rgb(9.05304%, 78.317261%, 89.361572%)" offset="0.625"/><stop stop-opacity="1" stop-color="rgb(9.399414%, 78.677368%, 89.682007%)" offset="0.65625"/><stop stop-opacity="1" stop-color="rgb(9.745789%, 79.03595%, 90.003967%)" offset="0.6875"/><stop stop-opacity="1" stop-color="rgb(10.093689%, 79.396057%, 90.325928%)" offset="0.71875"/><stop stop-opacity="1" stop-color="rgb(10.440063%, 79.754639%, 90.647888%)" offset="0.75"/><stop stop-opacity="1" stop-color="rgb(10.786438%, 80.11322%, 90.969849%)" offset="0.78125"/><stop stop-opacity="1" stop-color="rgb(11.132812%, 80.473328%, 91.290283%)" offset="0.8125"/><stop stop-opacity="1" stop-color="rgb(11.479187%, 80.831909%, 91.612244%)" offset="0.84375"/><stop stop-opacity="1" stop-color="rgb(11.825562%, 81.192017%, 91.934204%)" offset="0.875"/><stop stop-opacity="1" stop-color="rgb(12.171936%, 81.550598%, 92.256165%)" offset="0.90625"/><stop stop-opacity="1" stop-color="rgb(12.518311%, 81.90918%, 92.576599%)" offset="0.9375"/><stop stop-opacity="1" stop-color="rgb(12.866211%, 82.269287%, 92.89856%)" offset="0.96875"/><stop stop-opacity="1" stop-color="rgb(13.183594%, 82.598877%, 93.19458%)" offset="1"/></linearGradient><clipPath id="d5acc8d1ec"><path d="M 602 309 L 1796 309 L 1796 435.5 L 602 435.5 Z M 602 309 " clip-rule="nonzero"/></clipPath><linearGradient x1="-6.639909" gradientTransform="matrix(1, 0.000000000923603, -0.000000000923603, 1, 0.0000340837, -0.00000189475)" y1="19.58" x2="1442.556749" gradientUnits="userSpaceOnUse" y2="19.58" id="c4f86d978a"><stop stop-opacity="1" stop-color="rgb(2.349854%, 71.369934%, 83.139038%)" offset="0"/><stop stop-opacity="1" stop-color="rgb(2.496338%, 71.522522%, 83.276367%)" offset="0.03125"/><stop stop-opacity="1" stop-color="rgb(2.816772%, 71.855164%, 83.573914%)" offset="0.0625"/><stop stop-opacity="1" stop-color="rgb(3.163147%, 72.213745%, 83.895874%)" offset="0.09375"/><stop stop-opacity="1" stop-color="rgb(3.509521%, 72.572327%, 84.216309%)" offset="0.125"/><stop stop-opacity="1" stop-color="rgb(3.857422%, 72.932434%, 84.538269%)" offset="0.15625"/><stop stop-opacity="1" stop-color="rgb(4.203796%, 73.291016%, 84.860229%)" offset="0.1875"/><stop stop-opacity="1" stop-color="rgb(4.550171%, 73.649597%, 85.180664%)" offset="0.21875"/><stop stop-opacity="1" stop-color="rgb(4.896545%, 74.009705%, 85.502625%)" offset="0.25"/><stop stop-opacity="1" stop-color="rgb(5.24292%, 74.368286%, 85.824585%)" offset="0.28125"/><stop stop-opacity="1" stop-color="rgb(5.589294%, 74.726868%, 86.146545%)" offset="0.3125"/><stop stop-opacity="1" stop-color="rgb(5.935669%, 75.085449%, 86.46698%)" offset="0.34375"/><stop stop-opacity="1" stop-color="rgb(6.282043%, 75.445557%, 86.78894%)" offset="0.375"/><stop stop-opacity="1" stop-color="rgb(6.628418%, 75.804138%, 87.110901%)" offset="0.40625"/><stop stop-opacity="1" stop-color="rgb(6.974792%, 76.16272%, 87.431335%)" offset="0.4375"/><stop stop-opacity="1" stop-color="rgb(7.321167%, 76.522827%, 87.753296%)" offset="0.46875"/><stop stop-opacity="1" stop-color="rgb(7.667542%, 76.881409%, 88.075256%)" offset="0.5"/><stop stop-opacity="1" stop-color="rgb(8.013916%, 77.23999%, 88.397217%)" offset="0.53125"/><stop stop-opacity="1" stop-color="rgb(8.360291%, 77.600098%, 88.717651%)" offset="0.5625"/><stop stop-opacity="1" stop-color="rgb(8.706665%, 77.958679%, 89.039612%)" offset="0.59375"/><stop stop-opacity="1" stop-color="rgb(9.05304%, 78.317261%, 89.361572%)" offset="0.625"/><stop stop-opacity="1" stop-color="rgb(9.399414%, 78.677368%, 89.682007%)" offset="0.65625"/><stop stop-opacity="1" stop-color="rgb(9.745789%, 79.03595%, 90.003967%)" offset="0.6875"/><stop stop-opacity="1" stop-color="rgb(10.092163%, 79.394531%, 90.325928%)" offset="0.71875"/><stop stop-opacity="1" stop-color="rgb(10.438538%, 79.754639%, 90.646362%)" offset="0.75"/><stop stop-opacity="1" stop-color="rgb(10.784912%, 80.11322%, 90.968323%)" offset="0.78125"/><stop stop-opacity="1" stop-color="rgb(11.131287%, 80.471802%, 91.290283%)" offset="0.8125"/><stop stop-opacity="1" stop-color="rgb(11.477661%, 80.830383%, 91.612244%)" offset="0.84375"/><stop stop-opacity="1" stop-color="rgb(11.824036%, 81.190491%, 91.932678%)" offset="0.875"/><stop stop-opacity="1" stop-color="rgb(12.171936%, 81.549072%, 92.254639%)" offset="0.90625"/><stop stop-opacity="1" stop-color="rgb(12.518311%, 81.907654%, 92.576599%)" offset="0.9375"/><stop stop-opacity="1" stop-color="rgb(12.864685%, 82.267761%, 92.897034%)" offset="0.96875"/><stop stop-opacity="1" stop-color="rgb(13.183594%, 82.598877%, 93.193054%)" offset="1"/></linearGradient><clipPath id="1ea19ed51e"><path d="M 790 343 L 1727 343 L 1727 435.5 L 790 435.5 Z M 790 343 " clip-rule="nonzero"/></clipPath><linearGradient x1="-5.643573" gradientTransform="matrix(1, -0.0000000000848097, 0.0000000000848097, 1, 0.0000438, 0.00000767509)" y1="17.716" x2="1120.816944" gradientUnits="userSpaceOnUse" y2="17.716" id="b278e6c323"><stop stop-opacity="1" stop-color="rgb(2.349854%, 71.369934%, 83.139038%)" offset="0"/><stop stop-opacity="1" stop-color="rgb(2.494812%, 71.51947%, 83.273315%)" offset="0.03125"/><stop stop-opacity="1" stop-color="rgb(2.813721%, 71.850586%, 83.569336%)" offset="0.0625"/><stop stop-opacity="1" stop-color="rgb(3.160095%, 72.209167%, 83.891296%)" offset="0.09375"/><stop stop-opacity="1" stop-color="rgb(3.50647%, 72.569275%, 84.213257%)" offset="0.125"/><stop stop-opacity="1" stop-color="rgb(3.85437%, 72.929382%, 84.535217%)" offset="0.15625"/><stop stop-opacity="1" stop-color="rgb(4.200745%, 73.287964%, 84.857178%)" offset="0.1875"/><stop stop-opacity="1" stop-color="rgb(4.547119%, 73.648071%, 85.179138%)" offset="0.21875"/><stop stop-opacity="1" stop-color="rgb(4.893494%, 74.006653%, 85.501099%)" offset="0.25"/><stop stop-opacity="1" stop-color="rgb(5.241394%, 74.36676%, 85.823059%)" offset="0.28125"/><stop stop-opacity="1" stop-color="rgb(5.587769%, 74.725342%, 86.14502%)" offset="0.3125"/><stop stop-opacity="1" stop-color="rgb(5.934143%, 75.085449%, 86.46698%)" offset="0.34375"/><stop stop-opacity="1" stop-color="rgb(6.280518%, 75.444031%, 86.787415%)" offset="0.375"/><stop stop-opacity="1" stop-color="rgb(6.628418%, 75.804138%, 87.109375%)" offset="0.40625"/><stop stop-opacity="1" stop-color="rgb(6.974792%, 76.16272%, 87.431335%)" offset="0.4375"/><stop stop-opacity="1" stop-color="rgb(7.321167%, 76.522827%, 87.753296%)" offset="0.46875"/><stop stop-opacity="1" stop-color="rgb(7.667542%, 76.882935%, 88.075256%)" offset="0.5"/><stop stop-opacity="1" stop-color="rgb(8.015442%, 77.241516%, 88.397217%)" offset="0.53125"/><stop stop-opacity="1" stop-color="rgb(8.361816%, 77.601624%, 88.719177%)" offset="0.5625"/><stop stop-opacity="1" stop-color="rgb(8.708191%, 77.960205%, 89.041138%)" offset="0.59375"/><stop stop-opacity="1" stop-color="rgb(9.056091%, 78.320312%, 89.363098%)" offset="0.625"/><stop stop-opacity="1" stop-color="rgb(9.402466%, 78.678894%, 89.685059%)" offset="0.65625"/><stop stop-opacity="1" stop-color="rgb(9.74884%, 79.039001%, 90.007019%)" offset="0.6875"/><stop stop-opacity="1" stop-color="rgb(10.095215%, 79.397583%, 90.328979%)" offset="0.71875"/><stop stop-opacity="1" stop-color="rgb(10.443115%, 79.75769%, 90.649414%)" offset="0.75"/><stop stop-opacity="1" stop-color="rgb(10.78949%, 80.117798%, 90.971375%)" offset="0.78125"/><stop stop-opacity="1" stop-color="rgb(11.135864%, 80.476379%, 91.293335%)" offset="0.8125"/><stop stop-opacity="1" stop-color="rgb(11.482239%, 80.836487%, 91.615295%)" offset="0.84375"/><stop stop-opacity="1" stop-color="rgb(11.830139%, 81.195068%, 91.937256%)" offset="0.875"/><stop stop-opacity="1" stop-color="rgb(12.176514%, 81.555176%, 92.259216%)" offset="0.90625"/><stop stop-opacity="1" stop-color="rgb(12.522888%, 81.913757%, 92.581177%)" offset="0.9375"/><stop stop-opacity="1" stop-color="rgb(12.870789%, 82.273865%, 92.903137%)" offset="0.96875"/><stop stop-opacity="1" stop-color="rgb(13.186646%, 82.601929%, 93.196106%)" offset="1"/></linearGradient></defs><g fill="#f5f7fa" fill-opacity="1"><g transform="translate(196.456157, 304.395572)"><g><path d="M 196.875 -84.46875 L 187.875 -79.75 C 195.226562 -78.09375 200.21875 -74.785156 202.84375 -69.828125 C 205.476562 -64.878906 205.441406 -58.648438 202.734375 -51.140625 L 197.328125 -36.046875 C 196.273438 -32.890625 194.4375 -29.847656 191.8125 -26.921875 C 189.1875 -23.992188 186.144531 -21.550781 182.6875 -19.59375 L 150.921875 -3.375 C 148.972656 -2.175781 146.945312 -1.3125 144.84375 -0.78125 C 142.738281 -0.257812 140.632812 0 138.53125 0 L 14.1875 0 L 67.359375 -146.640625 L 173 -146.640625 C 189.96875 -146.640625 202.128906 -143.1875 209.484375 -136.28125 C 216.847656 -129.375 217.90625 -118.640625 212.65625 -104.078125 L 211.53125 -100.921875 C 210.320312 -97.765625 208.441406 -94.722656 205.890625 -91.796875 C 203.335938 -88.867188 200.332031 -86.425781 196.875 -84.46875 Z M 79.96875 -35.359375 L 131.109375 -35.359375 C 134.109375 -35.359375 137.035156 -36.1875 139.890625 -37.84375 C 142.742188 -39.5 144.992188 -42.578125 146.640625 -47.078125 C 148.296875 -51.585938 148.296875 -54.628906 146.640625 -56.203125 C 144.992188 -57.773438 142.671875 -58.5625 139.671875 -58.5625 L 88.296875 -58.5625 Z M 142.375 -87.625 C 145.375 -87.625 148.375 -88.488281 151.375 -90.21875 C 154.382812 -91.945312 156.640625 -95.0625 158.140625 -99.5625 C 159.785156 -104.070312 159.78125 -107.148438 158.125 -108.796875 C 156.476562 -110.453125 154.226562 -111.28125 151.375 -111.28125 L 107.453125 -111.28125 L 98.890625 -87.625 Z M 142.375 -87.625 "/></g></g></g><g fill="#f5f7fa" fill-opacity="1"><g transform="translate(378.246888, 304.395572)"><g><path d="M 59.015625 0 C 56.765625 0 54.773438 -0.257812 53.046875 -0.78125 C 51.316406 -1.3125 49.851562 -2.175781 48.65625 -3.375 L 28.828125 -19.59375 C 26.878906 -21.550781 25.71875 -23.992188 25.34375 -26.921875 C 24.96875 -29.847656 25.304688 -32.890625 26.359375 -36.046875 L 51.140625 -104.078125 C 56.390625 -118.640625 65.171875 -129.375 77.484375 -136.28125 C 89.804688 -143.1875 104.375 -146.640625 121.1875 -146.640625 L 193.5 -146.640625 C 198.15625 -146.640625 201.535156 -145.515625 203.640625 -143.265625 L 223.921875 -127.5 C 225.867188 -125.550781 227.066406 -123.109375 227.515625 -120.171875 C 227.960938 -117.242188 227.585938 -114.054688 226.390625 -110.609375 L 201.609375 -42.578125 C 196.359375 -28.003906 187.570312 -17.265625 175.25 -10.359375 C 162.9375 -3.453125 148.222656 0 131.109375 0 Z M 82.890625 -46.40625 C 81.847656 -43.40625 82.035156 -40.8125 83.453125 -38.625 C 84.878906 -36.445312 87.171875 -35.359375 90.328125 -35.359375 L 135.15625 -35.359375 C 138.164062 -35.359375 141.132812 -36.445312 144.0625 -38.625 C 146.988281 -40.8125 148.976562 -43.40625 150.03125 -46.40625 L 169.625 -100.25 C 170.820312 -103.394531 170.707031 -106.019531 169.28125 -108.125 C 167.851562 -110.226562 165.566406 -111.28125 162.421875 -111.28125 L 117.59375 -111.28125 C 114.582031 -111.28125 111.613281 -110.226562 108.6875 -108.125 C 105.757812 -106.019531 103.695312 -103.394531 102.5 -100.25 Z M 82.890625 -46.40625 "/></g></g></g><g fill="#f5f7fa" fill-opacity="1"><g transform="translate(563.416626, 304.395572)"><g><path d="M 189.21875 0 L 136.28125 0 L 146.203125 -27.484375 L 95.0625 -27.484375 L 82.453125 -40.09375 L 62.84375 0 L 9.46875 0 L 63.53125 -110.609375 C 65.03125 -114.054688 67.019531 -117.242188 69.5 -120.171875 C 71.976562 -123.109375 74.867188 -125.550781 78.171875 -127.5 L 110.15625 -143.265625 C 113.90625 -145.515625 117.957031 -146.640625 122.3125 -146.640625 L 189.671875 -146.640625 C 191.773438 -146.640625 193.691406 -146.378906 195.421875 -145.859375 C 197.148438 -145.335938 198.535156 -144.472656 199.578125 -143.265625 L 224.140625 -120.515625 C 226.242188 -118.566406 227.519531 -116.125 227.96875 -113.1875 C 228.414062 -110.257812 228.039062 -107.144531 226.84375 -103.84375 Z M 112.859375 -100.25 L 92.578125 -59.703125 L 157.90625 -59.703125 L 172.546875 -100.25 C 173.753906 -103.25 173.601562 -105.835938 172.09375 -108.015625 C 170.59375 -110.191406 168.269531 -111.28125 165.125 -111.28125 L 128.625 -111.28125 C 125.46875 -111.28125 122.460938 -110.191406 119.609375 -108.015625 C 116.765625 -105.835938 114.515625 -103.25 112.859375 -100.25 Z M 112.859375 -100.25 "/></g></g></g><g fill="#f5f7fa" fill-opacity="1"><g transform="translate(752.415918, 304.395572)"><g><path d="M 49.78125 -111.28125 L 62.625 -146.640625 L 236.75 -146.640625 L 223.921875 -111.28125 L 163.3125 -111.28125 L 129.75 -18.703125 C 128.25 -14.796875 125.695312 -11.941406 122.09375 -10.140625 L 105.875 -1.796875 C 103.925781 -0.597656 101.75 0 99.34375 0 L 70.0625 0 L 110.375 -111.28125 Z M 49.78125 -111.28125 "/></g></g></g><g fill="#f5f7fa" fill-opacity="1"><g transform="translate(931.05287, 304.395572)"><g><path d="M 209.953125 -91.234375 L 192.375 -42.796875 C 191.175781 -39.492188 189.335938 -36.488281 186.859375 -33.78125 C 184.378906 -31.082031 181.488281 -28.757812 178.1875 -26.8125 L 136.515625 -3.375 C 134.554688 -2.175781 132.5625 -1.3125 130.53125 -0.78125 C 128.507812 -0.257812 126.445312 0 124.34375 0 L 13.296875 0 L 26.125 -35.359375 L 125.703125 -35.359375 C 128.847656 -35.359375 131.847656 -36.445312 134.703125 -38.625 C 137.554688 -40.8125 139.507812 -43.40625 140.5625 -46.40625 L 144.171875 -55.859375 L 33.5625 -55.859375 L 50.90625 -103.84375 C 53.613281 -110.90625 58.570312 -116.460938 65.78125 -120.515625 L 107 -143.265625 C 109.101562 -144.472656 111.164062 -145.335938 113.1875 -145.859375 C 115.21875 -146.378906 117.210938 -146.640625 119.171875 -146.640625 L 230 -146.640625 L 217.15625 -111.28125 L 117.8125 -111.28125 C 114.65625 -111.28125 111.613281 -110.226562 108.6875 -108.125 C 105.757812 -106.019531 103.695312 -103.394531 102.5 -100.25 L 99.34375 -91.234375 Z M 209.953125 -91.234375 "/></g></g></g><g fill="#f5f7fa" fill-opacity="1"><g transform="translate(1106.76141, 304.395572)"><g><path d="M 49.78125 -111.28125 L 62.625 -146.640625 L 236.75 -146.640625 L 223.921875 -111.28125 L 163.3125 -111.28125 L 129.75 -18.703125 C 128.25 -14.796875 125.695312 -11.941406 122.09375 -10.140625 L 105.875 -1.796875 C 103.925781 -0.597656 101.75 0 99.34375 0 L 70.0625 0 L 110.375 -111.28125 Z M 49.78125 -111.28125 "/></g></g></g><g fill="#f5f7fa" fill-opacity="1"><g transform="translate(1285.398318, 304.395572)"><g><path d="M 189.21875 0 L 136.28125 0 L 146.203125 -27.484375 L 95.0625 -27.484375 L 82.453125 -40.09375 L 62.84375 0 L 9.46875 0 L 63.53125 -110.609375 C 65.03125 -114.054688 67.019531 -117.242188 69.5 -120.171875 C 71.976562 -123.109375 74.867188 -125.550781 78.171875 -127.5 L 110.15625 -143.265625 C 113.90625 -145.515625 117.957031 -146.640625 122.3125 -146.640625 L 189.671875 -146.640625 C 191.773438 -146.640625 193.691406 -146.378906 195.421875 -145.859375 C 197.148438 -145.335938 198.535156 -144.472656 199.578125 -143.265625 L 224.140625 -120.515625 C 226.242188 -118.566406 227.519531 -116.125 227.96875 -113.1875 C 228.414062 -110.257812 228.039062 -107.144531 226.84375 -103.84375 Z M 112.859375 -100.25 L 92.578125 -59.703125 L 157.90625 -59.703125 L 172.546875 -100.25 C 173.753906 -103.25 173.601562 -105.835938 172.09375 -108.015625 C 170.59375 -110.191406 168.269531 -111.28125 165.125 -111.28125 L 128.625 -111.28125 C 125.46875 -111.28125 122.460938 -110.191406 119.609375 -108.015625 C 116.765625 -105.835938 114.515625 -103.25 112.859375 -100.25 Z M 112.859375 -100.25 "/></g></g></g><g fill="#f5f7fa" fill-opacity="1"><g transform="translate(1474.397632, 304.395572)"><g><path d="M 49.78125 -111.28125 L 62.625 -146.640625 L 236.75 -146.640625 L 223.921875 -111.28125 L 163.3125 -111.28125 L 129.75 -18.703125 C 128.25 -14.796875 125.695312 -11.941406 122.09375 -10.140625 L 105.875 -1.796875 C 103.925781 -0.597656 101.75 0 99.34375 0 L 70.0625 0 L 110.375 -111.28125 Z M 49.78125 -111.28125 "/></g></g></g><g fill="#f5f7fa" fill-opacity="1"><g transform="translate(1653.034539, 304.395572)"><g><path d="M 209.953125 -91.234375 L 192.375 -42.796875 C 191.175781 -39.492188 189.335938 -36.488281 186.859375 -33.78125 C 184.378906 -31.082031 181.488281 -28.757812 178.1875 -26.8125 L 136.515625 -3.375 C 134.554688 -2.175781 132.5625 -1.3125 130.53125 -0.78125 C 128.507812 -0.257812 126.445312 0 124.34375 0 L 13.296875 0 L 26.125 -35.359375 L 125.703125 -35.359375 C 128.847656 -35.359375 131.847656 -36.445312 134.703125 -38.625 C 137.554688 -40.8125 139.507812 -43.40625 140.5625 -46.40625 L 144.171875 -55.859375 L 33.5625 -55.859375 L 50.90625 -103.84375 C 53.613281 -110.90625 58.570312 -116.460938 65.78125 -120.515625 L 107 -143.265625 C 109.101562 -144.472656 111.164062 -145.335938 113.1875 -145.859375 C 115.21875 -146.378906 117.210938 -146.640625 119.171875 -146.640625 L 230 -146.640625 L 217.15625 -111.28125 L 117.8125 -111.28125 C 114.65625 -111.28125 111.613281 -110.226562 108.6875 -108.125 C 105.757812 -106.019531 103.695312 -103.394531 102.5 -100.25 L 99.34375 -91.234375 Z M 209.953125 -91.234375 "/></g></g></g><g clip-path="url(#e7758cdd3b)"><path stroke-linecap="butt" transform="matrix(0.749447, -0.0135826, 0.0135826, 0.749447, 459.207063, 346.440963)" fill="none" stroke-linejoin="miter" d="M 0.675269 39.813018 C 546.441631 -1.27087 1134.046882 -1.269872 1763.48581 39.815917 " stroke="url(#7115d15786)" stroke-width="18" stroke-miterlimit="4"/></g><g clip-path="url(#d5acc8d1ec)"><path stroke-linecap="butt" transform="matrix(0.749352, -0.0180737, 0.0180737, 0.749352, 660.712705, 378.094566)" fill="none" stroke-linejoin="miter" d="M 0.524824 32.174777 C 446.990327 -1.392068 925.111754 -1.391014 1434.878812 32.172477 " stroke="url(#c4f86d978a)" stroke-width="14" stroke-miterlimit="4"/></g><g clip-path="url(#1ea19ed51e)"><path stroke-linecap="butt" transform="matrix(0.749272, -0.0211173, 0.0211173, 0.749272, 840.082385, 403.653899)" fill="none" stroke-linejoin="miter" d="M 0.519713 29.45259 C 359.493259 -1.819306 730.681389 -1.815901 1114.073977 29.452094 " stroke="url(#b278e6c323)" stroke-width="12" stroke-miterlimit="4"/></g></svg>