<svg xmlns="http://www.w3.org/2000/svg" xmlns:xlink="http://www.w3.org/1999/xlink" width="3000" zoomAndPan="magnify" viewBox="0 0 2250 899.99999" height="1200" preserveAspectRatio="xMidYMid meet" version="1.0"><defs><g/><linearGradient x1="-8.484499" gradientTransform="matrix(1, 0.000000000469915, -0.000000000469915, 1, 0.0000310034, 0.0000186955)" y1="24.398001" x2="1773.182603" gradientUnits="userSpaceOnUse" y2="24.398001" id="aff83b013e"><stop stop-opacity="1" stop-color="rgb(2.349854%, 71.369934%, 83.139038%)" offset="0"/><stop stop-opacity="1" stop-color="rgb(2.496338%, 71.520996%, 83.274841%)" offset="0.03125"/><stop stop-opacity="1" stop-color="rgb(2.815247%, 71.852112%, 83.572388%)" offset="0.0625"/><stop stop-opacity="1" stop-color="rgb(3.161621%, 72.212219%, 83.894348%)" offset="0.09375"/><stop stop-opacity="1" stop-color="rgb(3.507996%, 72.570801%, 84.214783%)" offset="0.125"/><stop stop-opacity="1" stop-color="rgb(3.855896%, 72.930908%, 84.536743%)" offset="0.15625"/><stop stop-opacity="1" stop-color="rgb(4.202271%, 73.28949%, 84.858704%)" offset="0.1875"/><stop stop-opacity="1" stop-color="rgb(4.548645%, 73.648071%, 85.180664%)" offset="0.21875"/><stop stop-opacity="1" stop-color="rgb(4.89502%, 74.008179%, 85.501099%)" offset="0.25"/><stop stop-opacity="1" stop-color="rgb(5.241394%, 74.36676%, 85.823059%)" offset="0.28125"/><stop stop-opacity="1" stop-color="rgb(5.587769%, 74.726868%, 86.14502%)" offset="0.3125"/><stop stop-opacity="1" stop-color="rgb(5.934143%, 75.085449%, 86.46698%)" offset="0.34375"/><stop stop-opacity="1" stop-color="rgb(6.280518%, 75.444031%, 86.78894%)" offset="0.375"/><stop stop-opacity="1" stop-color="rgb(6.626892%, 75.804138%, 87.109375%)" offset="0.40625"/><stop stop-opacity="1" stop-color="rgb(6.974792%, 76.16272%, 87.431335%)" offset="0.4375"/><stop stop-opacity="1" stop-color="rgb(7.321167%, 76.521301%, 87.753296%)" offset="0.46875"/><stop stop-opacity="1" stop-color="rgb(7.667542%, 76.881409%, 88.075256%)" offset="0.5"/><stop stop-opacity="1" stop-color="rgb(8.013916%, 77.23999%, 88.395691%)" offset="0.53125"/><stop stop-opacity="1" stop-color="rgb(8.360291%, 77.600098%, 88.717651%)" offset="0.5625"/><stop stop-opacity="1" stop-color="rgb(8.706665%, 77.958679%, 89.039612%)" offset="0.59375"/><stop stop-opacity="1" stop-color="rgb(9.05304%, 78.317261%, 89.361572%)" offset="0.625"/><stop stop-opacity="1" stop-color="rgb(9.399414%, 78.677368%, 89.682007%)" offset="0.65625"/><stop stop-opacity="1" stop-color="rgb(9.745789%, 79.03595%, 90.003967%)" offset="0.6875"/><stop stop-opacity="1" stop-color="rgb(10.093689%, 79.396057%, 90.325928%)" offset="0.71875"/><stop stop-opacity="1" stop-color="rgb(10.440063%, 79.754639%, 90.647888%)" offset="0.75"/><stop stop-opacity="1" stop-color="rgb(10.786438%, 80.11322%, 90.969849%)" offset="0.78125"/><stop stop-opacity="1" stop-color="rgb(11.132812%, 80.473328%, 91.290283%)" offset="0.8125"/><stop stop-opacity="1" stop-color="rgb(11.479187%, 80.831909%, 91.612244%)" offset="0.84375"/><stop stop-opacity="1" stop-color="rgb(11.825562%, 81.192017%, 91.934204%)" offset="0.875"/><stop stop-opacity="1" stop-color="rgb(12.171936%, 81.550598%, 92.256165%)" offset="0.90625"/><stop stop-opacity="1" stop-color="rgb(12.518311%, 81.90918%, 92.576599%)" offset="0.9375"/><stop stop-opacity="1" stop-color="rgb(12.866211%, 82.269287%, 92.89856%)" offset="0.96875"/><stop stop-opacity="1" stop-color="rgb(13.183594%, 82.598877%, 93.19458%)" offset="1"/></linearGradient><linearGradient x1="-6.639909" gradientTransform="matrix(1, 0.000000000923603, -0.000000000923603, 1, 0.0000338557, 0.0000287149)" y1="19.58" x2="1442.556749" gradientUnits="userSpaceOnUse" y2="19.58" id="2a05499e93"><stop stop-opacity="1" stop-color="rgb(2.349854%, 71.369934%, 83.139038%)" offset="0"/><stop stop-opacity="1" stop-color="rgb(2.496338%, 71.522522%, 83.276367%)" offset="0.03125"/><stop stop-opacity="1" stop-color="rgb(2.816772%, 71.855164%, 83.573914%)" offset="0.0625"/><stop stop-opacity="1" stop-color="rgb(3.163147%, 72.213745%, 83.895874%)" offset="0.09375"/><stop stop-opacity="1" stop-color="rgb(3.509521%, 72.572327%, 84.216309%)" offset="0.125"/><stop stop-opacity="1" stop-color="rgb(3.857422%, 72.932434%, 84.538269%)" offset="0.15625"/><stop stop-opacity="1" stop-color="rgb(4.203796%, 73.291016%, 84.860229%)" offset="0.1875"/><stop stop-opacity="1" stop-color="rgb(4.550171%, 73.649597%, 85.180664%)" offset="0.21875"/><stop stop-opacity="1" stop-color="rgb(4.896545%, 74.009705%, 85.502625%)" offset="0.25"/><stop stop-opacity="1" stop-color="rgb(5.24292%, 74.368286%, 85.824585%)" offset="0.28125"/><stop stop-opacity="1" stop-color="rgb(5.589294%, 74.726868%, 86.146545%)" offset="0.3125"/><stop stop-opacity="1" stop-color="rgb(5.935669%, 75.085449%, 86.46698%)" offset="0.34375"/><stop stop-opacity="1" stop-color="rgb(6.282043%, 75.445557%, 86.78894%)" offset="0.375"/><stop stop-opacity="1" stop-color="rgb(6.628418%, 75.804138%, 87.110901%)" offset="0.40625"/><stop stop-opacity="1" stop-color="rgb(6.974792%, 76.16272%, 87.431335%)" offset="0.4375"/><stop stop-opacity="1" stop-color="rgb(7.321167%, 76.522827%, 87.753296%)" offset="0.46875"/><stop stop-opacity="1" stop-color="rgb(7.667542%, 76.881409%, 88.075256%)" offset="0.5"/><stop stop-opacity="1" stop-color="rgb(8.013916%, 77.23999%, 88.397217%)" offset="0.53125"/><stop stop-opacity="1" stop-color="rgb(8.360291%, 77.600098%, 88.717651%)" offset="0.5625"/><stop stop-opacity="1" stop-color="rgb(8.706665%, 77.958679%, 89.039612%)" offset="0.59375"/><stop stop-opacity="1" stop-color="rgb(9.05304%, 78.317261%, 89.361572%)" offset="0.625"/><stop stop-opacity="1" stop-color="rgb(9.399414%, 78.677368%, 89.682007%)" offset="0.65625"/><stop stop-opacity="1" stop-color="rgb(9.745789%, 79.03595%, 90.003967%)" offset="0.6875"/><stop stop-opacity="1" stop-color="rgb(10.092163%, 79.394531%, 90.325928%)" offset="0.71875"/><stop stop-opacity="1" stop-color="rgb(10.438538%, 79.754639%, 90.646362%)" offset="0.75"/><stop stop-opacity="1" stop-color="rgb(10.784912%, 80.11322%, 90.968323%)" offset="0.78125"/><stop stop-opacity="1" stop-color="rgb(11.131287%, 80.471802%, 91.290283%)" offset="0.8125"/><stop stop-opacity="1" stop-color="rgb(11.477661%, 80.830383%, 91.612244%)" offset="0.84375"/><stop stop-opacity="1" stop-color="rgb(11.824036%, 81.190491%, 91.932678%)" offset="0.875"/><stop stop-opacity="1" stop-color="rgb(12.171936%, 81.549072%, 92.254639%)" offset="0.90625"/><stop stop-opacity="1" stop-color="rgb(12.518311%, 81.907654%, 92.576599%)" offset="0.9375"/><stop stop-opacity="1" stop-color="rgb(12.864685%, 82.267761%, 92.897034%)" offset="0.96875"/><stop stop-opacity="1" stop-color="rgb(13.183594%, 82.598877%, 93.193054%)" offset="1"/></linearGradient><linearGradient x1="-5.643559" gradientTransform="matrix(1, -0.0000000000848097, 0.0000000000848097, 1, 0.0000293998, -0.0000312065)" y1="17.716" x2="1120.816958" gradientUnits="userSpaceOnUse" y2="17.716" id="cc673ef52f"><stop stop-opacity="1" stop-color="rgb(2.349854%, 71.369934%, 83.139038%)" offset="0"/><stop stop-opacity="1" stop-color="rgb(2.494812%, 71.51947%, 83.273315%)" offset="0.03125"/><stop stop-opacity="1" stop-color="rgb(2.813721%, 71.850586%, 83.569336%)" offset="0.0625"/><stop stop-opacity="1" stop-color="rgb(3.160095%, 72.209167%, 83.891296%)" offset="0.09375"/><stop stop-opacity="1" stop-color="rgb(3.50647%, 72.569275%, 84.213257%)" offset="0.125"/><stop stop-opacity="1" stop-color="rgb(3.85437%, 72.929382%, 84.535217%)" offset="0.15625"/><stop stop-opacity="1" stop-color="rgb(4.200745%, 73.287964%, 84.857178%)" offset="0.1875"/><stop stop-opacity="1" stop-color="rgb(4.547119%, 73.648071%, 85.179138%)" offset="0.21875"/><stop stop-opacity="1" stop-color="rgb(4.893494%, 74.006653%, 85.501099%)" offset="0.25"/><stop stop-opacity="1" stop-color="rgb(5.241394%, 74.36676%, 85.823059%)" offset="0.28125"/><stop stop-opacity="1" stop-color="rgb(5.587769%, 74.725342%, 86.14502%)" offset="0.3125"/><stop stop-opacity="1" stop-color="rgb(5.934143%, 75.085449%, 86.46698%)" offset="0.34375"/><stop stop-opacity="1" stop-color="rgb(6.280518%, 75.444031%, 86.787415%)" offset="0.375"/><stop stop-opacity="1" stop-color="rgb(6.628418%, 75.804138%, 87.109375%)" offset="0.40625"/><stop stop-opacity="1" stop-color="rgb(6.974792%, 76.16272%, 87.431335%)" offset="0.4375"/><stop stop-opacity="1" stop-color="rgb(7.321167%, 76.522827%, 87.753296%)" offset="0.46875"/><stop stop-opacity="1" stop-color="rgb(7.667542%, 76.882935%, 88.075256%)" offset="0.5"/><stop stop-opacity="1" stop-color="rgb(8.015442%, 77.241516%, 88.397217%)" offset="0.53125"/><stop stop-opacity="1" stop-color="rgb(8.361816%, 77.601624%, 88.719177%)" offset="0.5625"/><stop stop-opacity="1" stop-color="rgb(8.708191%, 77.960205%, 89.041138%)" offset="0.59375"/><stop stop-opacity="1" stop-color="rgb(9.056091%, 78.320312%, 89.363098%)" offset="0.625"/><stop stop-opacity="1" stop-color="rgb(9.402466%, 78.678894%, 89.685059%)" offset="0.65625"/><stop stop-opacity="1" stop-color="rgb(9.74884%, 79.039001%, 90.007019%)" offset="0.6875"/><stop stop-opacity="1" stop-color="rgb(10.095215%, 79.397583%, 90.328979%)" offset="0.71875"/><stop stop-opacity="1" stop-color="rgb(10.443115%, 79.75769%, 90.649414%)" offset="0.75"/><stop stop-opacity="1" stop-color="rgb(10.78949%, 80.117798%, 90.971375%)" offset="0.78125"/><stop stop-opacity="1" stop-color="rgb(11.135864%, 80.476379%, 91.293335%)" offset="0.8125"/><stop stop-opacity="1" stop-color="rgb(11.482239%, 80.836487%, 91.615295%)" offset="0.84375"/><stop stop-opacity="1" stop-color="rgb(11.830139%, 81.195068%, 91.937256%)" offset="0.875"/><stop stop-opacity="1" stop-color="rgb(12.176514%, 81.555176%, 92.259216%)" offset="0.90625"/><stop stop-opacity="1" stop-color="rgb(12.522888%, 81.913757%, 92.581177%)" offset="0.9375"/><stop stop-opacity="1" stop-color="rgb(12.870789%, 82.273865%, 92.903137%)" offset="0.96875"/><stop stop-opacity="1" stop-color="rgb(13.186646%, 82.601929%, 93.196106%)" offset="1"/></linearGradient></defs><g fill="#f5f7fa" fill-opacity="1"><g transform="translate(301.165354, 524.282453)"><g><path d="M 196.984375 -84.515625 L 187.96875 -79.78125 C 195.332031 -78.132812 200.328125 -74.832031 202.953125 -69.875 C 205.585938 -64.914062 205.554688 -58.675781 202.859375 -51.15625 L 197.4375 -36.0625 C 196.382812 -32.90625 194.539062 -29.863281 191.90625 -26.9375 C 189.28125 -24.007812 186.242188 -21.566406 182.796875 -19.609375 L 151.015625 -3.375 C 149.054688 -2.175781 147.023438 -1.3125 144.921875 -0.78125 C 142.816406 -0.257812 140.710938 0 138.609375 0 L 14.203125 0 L 67.390625 -146.734375 L 173.09375 -146.734375 C 190.070312 -146.734375 202.242188 -143.273438 209.609375 -136.359375 C 216.972656 -129.453125 218.023438 -118.707031 212.765625 -104.125 L 211.640625 -100.96875 C 210.441406 -97.8125 208.5625 -94.769531 206 -91.84375 C 203.445312 -88.914062 200.441406 -86.472656 196.984375 -84.515625 Z M 80.015625 -35.390625 L 131.171875 -35.390625 C 134.179688 -35.390625 137.113281 -36.210938 139.96875 -37.859375 C 142.820312 -39.515625 145.078125 -42.597656 146.734375 -47.109375 C 148.378906 -51.617188 148.375 -54.660156 146.71875 -56.234375 C 145.070312 -57.816406 142.75 -58.609375 139.75 -58.609375 L 88.359375 -58.609375 Z M 142.453125 -87.671875 C 145.453125 -87.671875 148.453125 -88.535156 151.453125 -90.265625 C 154.460938 -91.992188 156.71875 -95.113281 158.21875 -99.625 C 159.875 -104.132812 159.875 -107.210938 158.21875 -108.859375 C 156.570312 -110.515625 154.320312 -111.34375 151.46875 -111.34375 L 107.515625 -111.34375 L 98.953125 -87.671875 Z M 142.453125 -87.671875 "/></g></g></g><g fill="#f5f7fa" fill-opacity="1"><g transform="translate(483.060384, 524.282453)"><g><path d="M 59.046875 0 C 56.796875 0 54.804688 -0.257812 53.078125 -0.78125 C 51.347656 -1.3125 49.882812 -2.175781 48.6875 -3.375 L 28.84375 -19.609375 C 26.894531 -21.566406 25.734375 -24.007812 25.359375 -26.9375 C 24.984375 -29.863281 25.320312 -32.90625 26.375 -36.0625 L 51.15625 -104.125 C 56.414062 -118.707031 65.207031 -129.453125 77.53125 -136.359375 C 89.851562 -143.273438 104.429688 -146.734375 121.265625 -146.734375 L 193.609375 -146.734375 C 198.265625 -146.734375 201.644531 -145.601562 203.75 -143.34375 L 224.03125 -127.578125 C 225.988281 -125.617188 227.191406 -123.171875 227.640625 -120.234375 C 228.097656 -117.304688 227.722656 -114.117188 226.515625 -110.671875 L 201.71875 -42.59375 C 196.46875 -28.019531 187.679688 -17.273438 175.359375 -10.359375 C 163.035156 -3.453125 148.304688 0 131.171875 0 Z M 82.9375 -46.4375 C 81.882812 -43.425781 82.070312 -40.832031 83.5 -38.65625 C 84.9375 -36.476562 87.226562 -35.390625 90.375 -35.390625 L 135.234375 -35.390625 C 138.242188 -35.390625 141.210938 -36.476562 144.140625 -38.65625 C 147.066406 -40.832031 149.054688 -43.425781 150.109375 -46.4375 L 169.71875 -100.296875 C 170.914062 -103.453125 170.800781 -106.082031 169.375 -108.1875 C 167.945312 -110.289062 165.65625 -111.34375 162.5 -111.34375 L 117.65625 -111.34375 C 114.644531 -111.34375 111.675781 -110.289062 108.75 -108.1875 C 105.820312 -106.082031 103.753906 -103.453125 102.546875 -100.296875 Z M 82.9375 -46.4375 "/></g></g></g><g fill="#f5f7fa" fill-opacity="1"><g transform="translate(668.336362, 524.282453)"><g><path d="M 189.328125 0 L 136.359375 0 L 146.28125 -27.5 L 95.109375 -27.5 L 82.5 -40.125 L 62.890625 0 L 9.46875 0 L 63.5625 -110.671875 C 65.0625 -114.117188 67.050781 -117.304688 69.53125 -120.234375 C 72.007812 -123.171875 74.898438 -125.617188 78.203125 -127.578125 L 110.21875 -143.34375 C 113.96875 -145.601562 118.023438 -146.734375 122.390625 -146.734375 L 189.78125 -146.734375 C 191.882812 -146.734375 193.800781 -146.46875 195.53125 -145.9375 C 197.257812 -145.414062 198.648438 -144.550781 199.703125 -143.34375 L 224.265625 -120.578125 C 226.367188 -118.628906 227.644531 -116.1875 228.09375 -113.25 C 228.539062 -110.320312 228.164062 -107.207031 226.96875 -103.90625 Z M 112.921875 -100.296875 L 92.640625 -59.734375 L 158 -59.734375 L 172.65625 -100.296875 C 173.851562 -103.304688 173.695312 -105.898438 172.1875 -108.078125 C 170.6875 -110.253906 168.363281 -111.34375 165.21875 -111.34375 L 128.703125 -111.34375 C 125.546875 -111.34375 122.539062 -110.253906 119.6875 -108.078125 C 116.832031 -105.898438 114.578125 -103.304688 112.921875 -100.296875 Z M 112.921875 -100.296875 "/></g></g></g><g fill="#f5f7fa" fill-opacity="1"><g transform="translate(857.44409, 524.282453)"><g><path d="M 49.8125 -111.34375 L 62.65625 -146.734375 L 236.890625 -146.734375 L 224.03125 -111.34375 L 163.40625 -111.34375 L 129.828125 -18.703125 C 128.328125 -14.796875 125.769531 -11.941406 122.15625 -10.140625 L 105.9375 -1.796875 C 103.976562 -0.597656 101.796875 0 99.390625 0 L 70.09375 0 L 110.4375 -111.34375 Z M 49.8125 -111.34375 "/></g></g></g><g fill="#f5f7fa" fill-opacity="1"><g transform="translate(1036.183533, 524.282453)"><g><path d="M 210.0625 -91.28125 L 192.484375 -42.828125 C 191.285156 -39.515625 189.445312 -36.503906 186.96875 -33.796875 C 184.488281 -31.097656 181.59375 -28.773438 178.28125 -26.828125 L 136.59375 -3.375 C 134.632812 -2.175781 132.640625 -1.3125 130.609375 -0.78125 C 128.585938 -0.257812 126.523438 0 124.421875 0 L 13.296875 0 L 26.140625 -35.390625 L 125.765625 -35.390625 C 128.921875 -35.390625 131.925781 -36.476562 134.78125 -38.65625 C 137.632812 -40.832031 139.585938 -43.425781 140.640625 -46.4375 L 144.25 -55.890625 L 33.578125 -55.890625 L 50.9375 -103.90625 C 53.644531 -110.96875 58.601562 -116.523438 65.8125 -120.578125 L 107.0625 -143.34375 C 109.164062 -144.550781 111.226562 -145.414062 113.25 -145.9375 C 115.28125 -146.46875 117.273438 -146.734375 119.234375 -146.734375 L 230.125 -146.734375 L 217.28125 -111.34375 L 117.875 -111.34375 C 114.71875 -111.34375 111.675781 -110.289062 108.75 -108.1875 C 105.820312 -106.082031 103.753906 -103.453125 102.546875 -100.296875 L 99.390625 -91.28125 Z M 210.0625 -91.28125 "/></g></g></g><g fill="#f5f7fa" fill-opacity="1"><g transform="translate(1211.992884, 524.282453)"><g><path d="M 49.8125 -111.34375 L 62.65625 -146.734375 L 236.890625 -146.734375 L 224.03125 -111.34375 L 163.40625 -111.34375 L 129.828125 -18.703125 C 128.328125 -14.796875 125.769531 -11.941406 122.15625 -10.140625 L 105.9375 -1.796875 C 103.976562 -0.597656 101.796875 0 99.390625 0 L 70.09375 0 L 110.4375 -111.34375 Z M 49.8125 -111.34375 "/></g></g></g><g fill="#f5f7fa" fill-opacity="1"><g transform="translate(1390.732282, 524.282453)"><g><path d="M 189.328125 0 L 136.359375 0 L 146.28125 -27.5 L 95.109375 -27.5 L 82.5 -40.125 L 62.890625 0 L 9.46875 0 L 63.5625 -110.671875 C 65.0625 -114.117188 67.050781 -117.304688 69.53125 -120.234375 C 72.007812 -123.171875 74.898438 -125.617188 78.203125 -127.578125 L 110.21875 -143.34375 C 113.96875 -145.601562 118.023438 -146.734375 122.390625 -146.734375 L 189.78125 -146.734375 C 191.882812 -146.734375 193.800781 -146.46875 195.53125 -145.9375 C 197.257812 -145.414062 198.648438 -144.550781 199.703125 -143.34375 L 224.265625 -120.578125 C 226.367188 -118.628906 227.644531 -116.1875 228.09375 -113.25 C 228.539062 -110.320312 228.164062 -107.207031 226.96875 -103.90625 Z M 112.921875 -100.296875 L 92.640625 -59.734375 L 158 -59.734375 L 172.65625 -100.296875 C 173.851562 -103.304688 173.695312 -105.898438 172.1875 -108.078125 C 170.6875 -110.253906 168.363281 -111.34375 165.21875 -111.34375 L 128.703125 -111.34375 C 125.546875 -111.34375 122.539062 -110.253906 119.6875 -108.078125 C 116.832031 -105.898438 114.578125 -103.304688 112.921875 -100.296875 Z M 112.921875 -100.296875 "/></g></g></g><g fill="#f5f7fa" fill-opacity="1"><g transform="translate(1579.840032, 524.282453)"><g><path d="M 49.8125 -111.34375 L 62.65625 -146.734375 L 236.890625 -146.734375 L 224.03125 -111.34375 L 163.40625 -111.34375 L 129.828125 -18.703125 C 128.328125 -14.796875 125.769531 -11.941406 122.15625 -10.140625 L 105.9375 -1.796875 C 103.976562 -0.597656 101.796875 0 99.390625 0 L 70.09375 0 L 110.4375 -111.34375 Z M 49.8125 -111.34375 "/></g></g></g><g fill="#f5f7fa" fill-opacity="1"><g transform="translate(1758.57943, 524.282453)"><g><path d="M 210.0625 -91.28125 L 192.484375 -42.828125 C 191.285156 -39.515625 189.445312 -36.503906 186.96875 -33.796875 C 184.488281 -31.097656 181.59375 -28.773438 178.28125 -26.828125 L 136.59375 -3.375 C 134.632812 -2.175781 132.640625 -1.3125 130.609375 -0.78125 C 128.585938 -0.257812 126.523438 0 124.421875 0 L 13.296875 0 L 26.140625 -35.390625 L 125.765625 -35.390625 C 128.921875 -35.390625 131.925781 -36.476562 134.78125 -38.65625 C 137.632812 -40.832031 139.585938 -43.425781 140.640625 -46.4375 L 144.25 -55.890625 L 33.578125 -55.890625 L 50.9375 -103.90625 C 53.644531 -110.96875 58.601562 -116.523438 65.8125 -120.578125 L 107.0625 -143.34375 C 109.164062 -144.550781 111.226562 -145.414062 113.25 -145.9375 C 115.28125 -146.46875 117.273438 -146.734375 119.234375 -146.734375 L 230.125 -146.734375 L 217.28125 -111.34375 L 117.875 -111.34375 C 114.71875 -111.34375 111.675781 -110.289062 108.75 -108.1875 C 105.820312 -106.082031 103.753906 -103.453125 102.546875 -100.296875 L 99.390625 -91.28125 Z M 210.0625 -91.28125 "/></g></g></g><path stroke-linecap="butt" transform="matrix(0.749877, -0.0135904, 0.0135904, 0.749877, 564.067062, 566.35199)" fill="none" stroke-linejoin="miter" d="M 0.673599 39.81505 C 546.440028 -1.270863 1134.047016 -1.274146 1763.483957 39.815427 " stroke="url(#aff83b013e)" stroke-width="18" stroke-miterlimit="4"/><path stroke-linecap="butt" transform="matrix(0.749782, -0.0180841, 0.0180841, 0.749782, 765.688268, 598.023733)" fill="none" stroke-linejoin="miter" d="M 0.525463 32.172674 C 446.990594 -1.389597 925.108868 -1.392427 1434.880033 32.174597 " stroke="url(#2a05499e93)" stroke-width="14" stroke-miterlimit="4"/><path stroke-linecap="butt" transform="matrix(0.749702, -0.0211294, 0.0211294, 0.749702, 945.160931, 623.597747)" fill="none" stroke-linejoin="miter" d="M 0.518358 29.453257 C 359.494904 -1.815664 730.678735 -1.816804 1114.075058 29.449983 " stroke="url(#cc673ef52f)" stroke-width="12" stroke-miterlimit="4"/></svg>