<svg xmlns="http://www.w3.org/2000/svg" xmlns:xlink="http://www.w3.org/1999/xlink" width="512" zoomAndPan="magnify" viewBox="0 0 384 383.999986" height="512" preserveAspectRatio="xMidYMid meet" version="1.0"><defs><g/><clipPath id="258db789f7"><rect x="0" width="323" y="0" height="236"/></clipPath><linearGradient x1="-7.610329" gradientTransform="matrix(1, -0.00000000296214, 0.00000000296214, 1, 0.00000173329, 0.0000194087)" y1="9.724" x2="341.528465" gradientUnits="userSpaceOnUse" y2="9.724" id="2a7bbdf069"><stop stop-opacity="1" stop-color="rgb(2.349854%, 71.369934%, 83.139038%)" offset="0"/><stop stop-opacity="1" stop-color="rgb(2.403259%, 71.424866%, 83.189392%)" offset="0.03125"/><stop stop-opacity="1" stop-color="rgb(2.636719%, 71.66748%, 83.406067%)" offset="0.0625"/><stop stop-opacity="1" stop-color="rgb(2.9953%, 72.039795%, 83.738708%)" offset="0.09375"/><stop stop-opacity="1" stop-color="rgb(3.353882%, 72.410583%, 84.072876%)" offset="0.125"/><stop stop-opacity="1" stop-color="rgb(3.712463%, 72.782898%, 84.405518%)" offset="0.15625"/><stop stop-opacity="1" stop-color="rgb(4.072571%, 73.155212%, 84.738159%)" offset="0.1875"/><stop stop-opacity="1" stop-color="rgb(4.431152%, 73.527527%, 85.070801%)" offset="0.21875"/><stop stop-opacity="1" stop-color="rgb(4.789734%, 73.898315%, 85.404968%)" offset="0.25"/><stop stop-opacity="1" stop-color="rgb(5.148315%, 74.27063%, 85.73761%)" offset="0.28125"/><stop stop-opacity="1" stop-color="rgb(5.506897%, 74.642944%, 86.070251%)" offset="0.3125"/><stop stop-opacity="1" stop-color="rgb(5.865479%, 75.015259%, 86.402893%)" offset="0.34375"/><stop stop-opacity="1" stop-color="rgb(6.22406%, 75.386047%, 86.737061%)" offset="0.375"/><stop stop-opacity="1" stop-color="rgb(6.584167%, 75.758362%, 87.069702%)" offset="0.40625"/><stop stop-opacity="1" stop-color="rgb(6.942749%, 76.130676%, 87.402344%)" offset="0.4375"/><stop stop-opacity="1" stop-color="rgb(7.301331%, 76.501465%, 87.734985%)" offset="0.46875"/><stop stop-opacity="1" stop-color="rgb(7.659912%, 76.873779%, 88.067627%)" offset="0.5"/><stop stop-opacity="1" stop-color="rgb(8.018494%, 77.246094%, 88.401794%)" offset="0.53125"/><stop stop-opacity="1" stop-color="rgb(8.377075%, 77.618408%, 88.734436%)" offset="0.5625"/><stop stop-opacity="1" stop-color="rgb(8.737183%, 77.989197%, 89.067078%)" offset="0.59375"/><stop stop-opacity="1" stop-color="rgb(9.095764%, 78.361511%, 89.399719%)" offset="0.625"/><stop stop-opacity="1" stop-color="rgb(9.454346%, 78.733826%, 89.733887%)" offset="0.65625"/><stop stop-opacity="1" stop-color="rgb(9.812927%, 79.104614%, 90.066528%)" offset="0.6875"/><stop stop-opacity="1" stop-color="rgb(10.171509%, 79.476929%, 90.39917%)" offset="0.71875"/><stop stop-opacity="1" stop-color="rgb(10.53009%, 79.849243%, 90.731812%)" offset="0.75"/><stop stop-opacity="1" stop-color="rgb(10.890198%, 80.221558%, 91.065979%)" offset="0.78125"/><stop stop-opacity="1" stop-color="rgb(11.248779%, 80.592346%, 91.398621%)" offset="0.8125"/><stop stop-opacity="1" stop-color="rgb(11.607361%, 80.964661%, 91.731262%)" offset="0.84375"/><stop stop-opacity="1" stop-color="rgb(11.965942%, 81.336975%, 92.063904%)" offset="0.875"/><stop stop-opacity="1" stop-color="rgb(12.324524%, 81.70929%, 92.398071%)" offset="0.90625"/><stop stop-opacity="1" stop-color="rgb(12.683105%, 82.080078%, 92.730713%)" offset="0.9375"/><stop stop-opacity="1" stop-color="rgb(13.041687%, 82.452393%, 93.063354%)" offset="0.96875"/><stop stop-opacity="1" stop-color="rgb(13.275146%, 82.693481%, 93.278503%)" offset="1"/></linearGradient><linearGradient x1="-6.119978" gradientTransform="matrix(1, -0.00000000148359, 0.00000000148359, 1, 0.0000000195506, -0.000011539)" y1="8.079001" x2="295.873272" gradientUnits="userSpaceOnUse" y2="8.079001" id="4f8be30006"><stop stop-opacity="1" stop-color="rgb(2.349854%, 71.369934%, 83.139038%)" offset="0"/><stop stop-opacity="1" stop-color="rgb(2.412415%, 71.434021%, 83.197021%)" offset="0.03125"/><stop stop-opacity="1" stop-color="rgb(2.653503%, 71.684265%, 83.421326%)" offset="0.0625"/><stop stop-opacity="1" stop-color="rgb(3.010559%, 72.055054%, 83.752441%)" offset="0.09375"/><stop stop-opacity="1" stop-color="rgb(3.369141%, 72.425842%, 84.085083%)" offset="0.125"/><stop stop-opacity="1" stop-color="rgb(3.726196%, 72.795105%, 84.416199%)" offset="0.15625"/><stop stop-opacity="1" stop-color="rgb(4.083252%, 73.165894%, 84.74884%)" offset="0.1875"/><stop stop-opacity="1" stop-color="rgb(4.440308%, 73.536682%, 85.079956%)" offset="0.21875"/><stop stop-opacity="1" stop-color="rgb(4.798889%, 73.907471%, 85.412598%)" offset="0.25"/><stop stop-opacity="1" stop-color="rgb(5.155945%, 74.278259%, 85.743713%)" offset="0.28125"/><stop stop-opacity="1" stop-color="rgb(5.513%, 74.649048%, 86.076355%)" offset="0.3125"/><stop stop-opacity="1" stop-color="rgb(5.871582%, 75.018311%, 86.407471%)" offset="0.34375"/><stop stop-opacity="1" stop-color="rgb(6.228638%, 75.389099%, 86.740112%)" offset="0.375"/><stop stop-opacity="1" stop-color="rgb(6.585693%, 75.759888%, 87.071228%)" offset="0.40625"/><stop stop-opacity="1" stop-color="rgb(6.944275%, 76.130676%, 87.402344%)" offset="0.4375"/><stop stop-opacity="1" stop-color="rgb(7.301331%, 76.501465%, 87.734985%)" offset="0.46875"/><stop stop-opacity="1" stop-color="rgb(7.658386%, 76.872253%, 88.066101%)" offset="0.5"/><stop stop-opacity="1" stop-color="rgb(8.016968%, 77.243042%, 88.398743%)" offset="0.53125"/><stop stop-opacity="1" stop-color="rgb(8.374023%, 77.612305%, 88.729858%)" offset="0.5625"/><stop stop-opacity="1" stop-color="rgb(8.731079%, 77.983093%, 89.0625%)" offset="0.59375"/><stop stop-opacity="1" stop-color="rgb(9.088135%, 78.353882%, 89.393616%)" offset="0.625"/><stop stop-opacity="1" stop-color="rgb(9.446716%, 78.72467%, 89.726257%)" offset="0.65625"/><stop stop-opacity="1" stop-color="rgb(9.803772%, 79.095459%, 90.057373%)" offset="0.6875"/><stop stop-opacity="1" stop-color="rgb(10.160828%, 79.466248%, 90.388489%)" offset="0.71875"/><stop stop-opacity="1" stop-color="rgb(10.519409%, 79.83551%, 90.72113%)" offset="0.75"/><stop stop-opacity="1" stop-color="rgb(10.876465%, 80.206299%, 91.052246%)" offset="0.78125"/><stop stop-opacity="1" stop-color="rgb(11.233521%, 80.577087%, 91.384888%)" offset="0.8125"/><stop stop-opacity="1" stop-color="rgb(11.592102%, 80.947876%, 91.716003%)" offset="0.84375"/><stop stop-opacity="1" stop-color="rgb(11.949158%, 81.318665%, 92.048645%)" offset="0.875"/><stop stop-opacity="1" stop-color="rgb(12.306213%, 81.689453%, 92.379761%)" offset="0.90625"/><stop stop-opacity="1" stop-color="rgb(12.664795%, 82.058716%, 92.712402%)" offset="0.9375"/><stop stop-opacity="1" stop-color="rgb(13.021851%, 82.429504%, 93.043518%)" offset="0.96875"/><stop stop-opacity="1" stop-color="rgb(13.264465%, 82.6828%, 93.269348%)" offset="1"/></linearGradient></defs><g transform="matrix(1, 0, 0, 1, 33, 60)"><g clip-path="url(#258db789f7)"><g fill="#f5f7fa" fill-opacity="1"><g transform="translate(0.502504, 185.498246)"><g><path d="M 153.03125 -65.65625 L 146.03125 -61.984375 C 151.75 -60.703125 155.628906 -58.132812 157.671875 -54.28125 C 159.710938 -50.425781 159.679688 -45.582031 157.578125 -39.75 L 153.375 -28.015625 C 152.5625 -25.566406 151.132812 -23.203125 149.09375 -20.921875 C 147.050781 -18.648438 144.6875 -16.753906 142 -15.234375 L 117.3125 -2.625 C 115.789062 -1.6875 114.210938 -1.015625 112.578125 -0.609375 C 110.953125 -0.203125 109.320312 0 107.6875 0 L 11.03125 0 L 52.359375 -113.984375 L 134.46875 -113.984375 C 147.65625 -113.984375 157.109375 -111.296875 162.828125 -105.921875 C 168.554688 -100.554688 169.375 -92.210938 165.28125 -80.890625 L 164.40625 -78.4375 C 163.476562 -75.988281 162.019531 -73.625 160.03125 -71.34375 C 158.050781 -69.070312 155.71875 -67.175781 153.03125 -65.65625 Z M 62.15625 -27.484375 L 101.90625 -27.484375 C 104.238281 -27.484375 106.515625 -28.125 108.734375 -29.40625 C 110.953125 -30.695312 112.703125 -33.09375 113.984375 -36.59375 C 115.265625 -40.09375 115.265625 -42.457031 113.984375 -43.6875 C 112.703125 -44.914062 110.894531 -45.53125 108.5625 -45.53125 L 68.640625 -45.53125 Z M 110.65625 -68.109375 C 112.988281 -68.109375 115.320312 -68.78125 117.65625 -70.125 C 120 -71.46875 121.753906 -73.890625 122.921875 -77.390625 C 124.203125 -80.890625 124.195312 -83.28125 122.90625 -84.5625 C 121.625 -85.851562 119.875 -86.5 117.65625 -86.5 L 83.515625 -86.5 L 76.859375 -68.109375 Z M 110.65625 -68.109375 "/></g></g></g><g fill="#f5f7fa" fill-opacity="1"><g transform="translate(141.804124, 185.498246)"><g><path d="M 163.1875 -70.90625 L 149.53125 -33.265625 C 148.59375 -30.703125 147.160156 -28.367188 145.234375 -26.265625 C 143.304688 -24.160156 141.0625 -22.351562 138.5 -20.84375 L 106.109375 -2.625 C 104.585938 -1.6875 103.039062 -1.015625 101.46875 -0.609375 C 99.894531 -0.203125 98.289062 0 96.65625 0 L 10.328125 0 L 20.3125 -27.484375 L 97.703125 -27.484375 C 100.148438 -27.484375 102.484375 -28.328125 104.703125 -30.015625 C 106.921875 -31.710938 108.441406 -33.726562 109.265625 -36.0625 L 112.0625 -43.421875 L 26.09375 -43.421875 L 39.578125 -80.71875 C 41.671875 -86.207031 45.519531 -90.523438 51.125 -93.671875 L 83.171875 -111.359375 C 84.804688 -112.296875 86.410156 -112.96875 87.984375 -113.375 C 89.554688 -113.78125 91.101562 -113.984375 92.625 -113.984375 L 178.765625 -113.984375 L 168.796875 -86.5 L 91.578125 -86.5 C 89.117188 -86.5 86.75 -85.679688 84.46875 -84.046875 C 82.195312 -82.410156 80.597656 -80.367188 79.671875 -77.921875 L 77.21875 -70.90625 Z M 163.1875 -70.90625 "/></g></g></g></g></g><path stroke-linecap="butt" transform="matrix(0.747696, -0.058736, 0.058736, 0.747696, 63.263109, 273.83945)" fill="none" stroke-linejoin="miter" d="M 0.4277 11.956158 C 104.101991 6.015463 215.120333 6.0119 333.487101 11.956262 " stroke="url(#2a7bbdf069)" stroke-width="15" stroke-miterlimit="4"/><path stroke-linecap="butt" transform="matrix(0.74771, -0.0585621, 0.0585621, 0.74771, 84.932828, 292.10403)" fill="none" stroke-linejoin="miter" d="M 0.312295 10.16672 C 107.489906 4.612242 203.867547 4.611638 289.445217 10.164907 " stroke="url(#4f8be30006)" stroke-width="12" stroke-miterlimit="4"/></svg>